<svg width="680" height="190" viewBox="0 0 680 190" fill="none" xmlns="http://www.w3.org/2000/svg" role="img" aria-labelledby="title desc">
  <title id="title">Pinary</title>
  <desc id="desc">Pinary academy logo with Pi mark and Learn Think Innovate tagline.</desc>
  <rect width="680" height="190" rx="8" fill="#020609"/>
  <defs>
    <linearGradient id="markBlue" x1="45" y1="48" x2="145" y2="154" gradientUnits="userSpaceOnUse">
      <stop stop-color="#0078D7"/>
      <stop offset="1" stop-color="#00345D"/>
    </linearGradient>
    <linearGradient id="markAqua" x1="138" y1="52" x2="176" y2="152" gradientUnits="userSpaceOnUse">
      <stop stop-color="#23E0CF"/>
      <stop offset="1" stop-color="#13AFA7"/>
    </linearGradient>
  </defs>
  <path d="M48 147V83.5C48 54.5 71.5 31 100.5 31H106.5C136 31 159 53.7 159 82.4C159 111.1 136.2 133 107.4 133H88.5V104.5H107.4C119.4 104.5 129 95.3 129 82.8C129 70.2 119.2 60.4 106.5 60.4H100.5C88 60.4 78.1 70.4 78.1 83.5V147C78.1 155.3 71.4 162 63 162C54.7 162 48 155.3 48 147Z" fill="url(#markBlue)"/>
  <circle cx="180" cy="51" r="13" fill="url(#markAqua)"/>
  <path d="M165 149V87.5L151.7 100.7C145.8 106.6 136.3 106.6 130.4 100.7C124.6 94.8 124.6 85.2 130.4 79.4L169.2 40.6C173.5 36.3 180.1 35 185.8 37.3C191.5 39.6 195.2 45.1 195.2 51.2V149C195.2 157.3 188.4 164 180.1 164C171.8 164 165 157.3 165 149Z" fill="url(#markAqua)"/>
  <g fill="#FFFFFF">
    <path d="M251 103V55H285.5C297.1 55 305.5 62.7 305.5 73.7C305.5 84.8 297.1 92.5 285.5 92.5H263.4V103H251ZM263.4 82.2H283.8C289.2 82.2 292.8 78.7 292.8 73.7C292.8 68.8 289.2 65.3 283.8 65.3H263.4V82.2Z"/>
    <path d="M342.8 103V55H355.2V103H342.8Z"/>
    <path d="M396.6 103V55H408.1L438.7 84.2V55H451V103H439.7L408.9 73.4V103H396.6Z"/>
    <path d="M488.3 103L513.6 55H525.9L551.1 103H537.5L532.8 93.7H506.4L501.8 103H488.3ZM511.2 83.8H528.1L519.7 67.2L511.2 83.8Z" fill="#008CFF"/>
    <path d="M589.5 103V55H625.4C636.2 55 644.1 62.1 644.1 72.2C644.1 79.2 640.2 85 634.1 87.8L646.5 103H631.9L621.3 89.8H601.8V103H589.5ZM601.8 79.8H623.7C628.5 79.8 631.8 76.8 631.8 72.4C631.8 68.1 628.5 65.3 623.7 65.3H601.8V79.8Z"/>
  </g>
  <path d="M279 136H270.5V126H273V133.7H279V136ZM308.8 136H300.2V126H308.7V128.2H302.7V130H308.1V132.1H302.7V133.8H308.8V136ZM342.1 136L341.1 133.9H336L335 136H332.3L337.3 126H339.9L344.9 136H342.1ZM336.9 131.9H340.1L338.5 128.6L336.9 131.9ZM376.8 136L374.5 132.9H370.7V136H368.2V126H374.9C377.3 126 379 127.4 379 129.5C379 130.9 378.2 132.1 376.9 132.6L379.6 136H376.8ZM370.7 130.8H374.7C375.8 130.8 376.4 130.3 376.4 129.5C376.4 128.7 375.8 128.2 374.7 128.2H370.7V130.8ZM412.6 136L406.9 129.9V136H404.5V126H406.7L412.4 132.1V126H414.8V136H412.6ZM473.8 136V128.3H469.8V126H480.3V128.3H476.3V136H473.8ZM510.7 136V132.1H504.9V136H502.4V126H504.9V129.8H510.7V126H513.2V136H510.7ZM539.1 136V126H541.6V136H539.1ZM575 136L569.3 129.9V136H566.9V126H569.1L574.8 132.1V126H577.2V136H575ZM605 136L600.7 131.4V136H598.2V126H600.7V130.2L604.8 126H608L603 130.9L608.2 136H605Z" fill="#FFFFFF"/>
  <circle cx="437" cy="131" r="2.6" fill="#008CFF"/>
  <circle cx="463" cy="131" r="2.6" fill="#008CFF"/>
</svg>
